<svg xmlns="http://www.w3.org/2000/svg" xmlns:xlink="http://www.w3.org/1999/xlink" contentStyleType="text/css" height="2278px" preserveAspectRatio="none" style="width:7782px;height:2278px;background:#FFFFFF;" version="1.1" viewBox="0 0 7782 2278" width="7782px" zoomAndPan="magnify"><defs/><g><!--cluster com--><g id="cluster_com"><path d="M17,12 L78.9375,12 A7.5,7.5 0 0 1 83.9375,17 L97.9375,56.9766 L7763,56.9766 A5,5 0 0 1 7768,61.9766 L7768,2259.84 A5,5 0 0 1 7763,2264.84 L17,2264.84 A5,5 0 0 1 12,2259.84 L12,17 A5,5 0 0 1 17,12 " fill="none" style="stroke:#000000;stroke-width:3.0;"/><line style="stroke:#000000;stroke-width:3.0;" x1="12" x2="97.9375" y1="56.9766" y2="56.9766"/><text fill="#000000" font-family="sans-serif" font-size="28" font-weight="bold" lengthAdjust="spacing" textLength="59.9375" x="20" y="43.0703">com</text></g><!--cluster potucek--><g id="cluster_potucek"><path d="M65,98 L182.1992,98 A7.5,7.5 0 0 1 187.1992,103 L201.1992,142.9766 L7715,142.9766 A5,5 0 0 1 7720,147.9766 L7720,2211.84 A5,5 0 0 1 7715,2216.84 L65,2216.84 A5,5 0 0 1 60,2211.84 L60,103 A5,5 0 0 1 65,98 " fill="none" style="stroke:#000000;stroke-width:3.0;"/><line style="stroke:#000000;stroke-width:3.0;" x1="60" x2="201.1992" y1="142.9766" y2="142.9766"/><text fill="#000000" font-family="sans-serif" font-size="28" font-weight="bold" lengthAdjust="spacing" textLength="115.1992" x="68" y="129.0703">potucek</text></g><!--cluster shop--><g id="cluster_shop"><path d="M113,184 L185.6563,184 A7.5,7.5 0 0 1 190.6563,189 L204.6563,228.9766 L7667,228.9766 A5,5 0 0 1 7672,233.9766 L7672,2163.84 A5,5 0 0 1 7667,2168.84 L113,2168.84 A5,5 0 0 1 108,2163.84 L108,189 A5,5 0 0 1 113,184 " fill="none" style="stroke:#000000;stroke-width:3.0;"/><line style="stroke:#000000;stroke-width:3.0;" x1="108" x2="204.6563" y1="228.9766" y2="228.9766"/><text fill="#000000" font-family="sans-serif" font-size="28" font-weight="bold" lengthAdjust="spacing" textLength="70.6563" x="116" y="215.0703">shop</text></g><!--cluster drivers--><g id="cluster_drivers"><path d="M161,270 L264.9648,270 A7.5,7.5 0 0 1 269.9648,275 L283.9648,314.9766 L7619,314.9766 A5,5 0 0 1 7624,319.9766 L7624,2115.84 A5,5 0 0 1 7619,2120.84 L161,2120.84 A5,5 0 0 1 156,2115.84 L156,275 A5,5 0 0 1 161,270 " fill="none" style="stroke:#000000;stroke-width:3.0;"/><line style="stroke:#000000;stroke-width:3.0;" x1="156" x2="283.9648" y1="314.9766" y2="314.9766"/><text fill="#000000" font-family="sans-serif" font-size="28" font-weight="bold" lengthAdjust="spacing" textLength="101.9648" x="164" y="301.0703">drivers</text></g><!--cluster core--><g id="cluster_core"><path d="M953,356 L1016.9199,356 A7.5,7.5 0 0 1 1021.9199,361 L1035.9199,400.9766 L6615,400.9766 A5,5 0 0 1 6620,405.9766 L6620,2067.84 A5,5 0 0 1 6615,2072.84 L953,2072.84 A5,5 0 0 1 948,2067.84 L948,361 A5,5 0 0 1 953,356 " fill="none" style="stroke:#000000;stroke-width:3.0;"/><line style="stroke:#000000;stroke-width:3.0;" x1="948" x2="1035.9199" y1="400.9766" y2="400.9766"/><text fill="#000000" font-family="sans-serif" font-size="28" font-weight="bold" lengthAdjust="spacing" textLength="61.9199" x="956" y="387.0703">core</text></g><!--cluster application--><g id="cluster_application"><path d="M1001,442 L1162.8652,442 A7.5,7.5 0 0 1 1167.8652,447 L1181.8652,486.9766 L6567,486.9766 A5,5 0 0 1 6572,491.9766 L6572,2019.84 A5,5 0 0 1 6567,2024.84 L1001,2024.84 A5,5 0 0 1 996,2019.84 L996,447 A5,5 0 0 1 1001,442 " fill="none" style="stroke:#000000;stroke-width:3.0;"/><line style="stroke:#000000;stroke-width:3.0;" x1="996" x2="1181.8652" y1="486.9766" y2="486.9766"/><text fill="#000000" font-family="sans-serif" font-size="28" font-weight="bold" lengthAdjust="spacing" textLength="159.8652" x="1004" y="473.0703">application</text></g><!--cluster services--><g id="cluster_services"><path d="M1049,528 L1168.8242,528 A7.5,7.5 0 0 1 1173.8242,533 L1187.8242,572.9766 L6519,572.9766 A5,5 0 0 1 6524,577.9766 L6524,1971.84 A5,5 0 0 1 6519,1976.84 L1049,1976.84 A5,5 0 0 1 1044,1971.84 L1044,533 A5,5 0 0 1 1049,528 " fill="none" style="stroke:#000000;stroke-width:3.0;"/><line style="stroke:#000000;stroke-width:3.0;" x1="1044" x2="1187.8242" y1="572.9766" y2="572.9766"/><text fill="#000000" font-family="sans-serif" font-size="28" font-weight="bold" lengthAdjust="spacing" textLength="117.8242" x="1052" y="559.0703">services</text></g><!--cluster domain--><g id="cluster_domain"><path d="M2657,614 L2766.543,614 A7.5,7.5 0 0 1 2771.543,619 L2785.543,658.9766 L6471,658.9766 A5,5 0 0 1 6476,663.9766 L6476,1923.84 A5,5 0 0 1 6471,1928.84 L2657,1928.84 A5,5 0 0 1 2652,1923.84 L2652,619 A5,5 0 0 1 2657,614 " fill="none" style="stroke:#000000;stroke-width:3.0;"/><line style="stroke:#000000;stroke-width:3.0;" x1="2652" x2="2785.543" y1="658.9766" y2="658.9766"/><text fill="#000000" font-family="sans-serif" font-size="28" font-weight="bold" lengthAdjust="spacing" textLength="107.543" x="2660" y="645.0703">domain</text></g><!--cluster services--><g id="cluster_services"><path d="M2705,700 L2824.8242,700 A7.5,7.5 0 0 1 2829.8242,705 L2843.8242,744.9766 L6423,744.9766 A5,5 0 0 1 6428,749.9766 L6428,1875.84 A5,5 0 0 1 6423,1880.84 L2705,1880.84 A5,5 0 0 1 2700,1875.84 L2700,705 A5,5 0 0 1 2705,700 " fill="none" style="stroke:#000000;stroke-width:3.0;"/><line style="stroke:#000000;stroke-width:3.0;" x1="2700" x2="2843.8242" y1="744.9766" y2="744.9766"/><text fill="#000000" font-family="sans-serif" font-size="28" font-weight="bold" lengthAdjust="spacing" textLength="117.8242" x="2708" y="731.0703">services</text></g><!--cluster entities--><g id="cluster_entities"><path d="M4265,786 L4374.9395,786 A7.5,7.5 0 0 1 4379.9395,791 L4393.9395,830.9766 L6375,830.9766 A5,5 0 0 1 6380,835.9766 L6380,1827.84 A5,5 0 0 1 6375,1832.84 L4265,1832.84 A5,5 0 0 1 4260,1827.84 L4260,791 A5,5 0 0 1 4265,786 " fill="none" style="stroke:#000000;stroke-width:3.0;"/><line style="stroke:#000000;stroke-width:3.0;" x1="4260" x2="4393.9395" y1="830.9766" y2="830.9766"/><text fill="#000000" font-family="sans-serif" font-size="28" font-weight="bold" lengthAdjust="spacing" textLength="107.9395" x="4268" y="817.0703">entities</text></g><!--cluster hawk--><g id="cluster_hawk"><path d="M4313,872 L4391.7266,872 A7.5,7.5 0 0 1 4396.7266,877 L4410.7266,916.9766 L6327,916.9766 A5,5 0 0 1 6332,921.9766 L6332,1779.84 A5,5 0 0 1 6327,1784.84 L4313,1784.84 A5,5 0 0 1 4308,1779.84 L4308,877 A5,5 0 0 1 4313,872 " fill="none" style="stroke:#000000;stroke-width:3.0;"/><line style="stroke:#000000;stroke-width:3.0;" x1="4308" x2="4410.7266" y1="916.9766" y2="916.9766"/><text fill="#000000" font-family="sans-serif" font-size="28" font-weight="bold" lengthAdjust="spacing" textLength="76.7266" x="4316" y="903.0703">hawk</text></g><!--cluster port--><g id="cluster_port"><path d="M4829,958 L4891.5117,958 A7.5,7.5 0 0 1 4896.5117,963 L4910.5117,1002.9766 L6279,1002.9766 A5,5 0 0 1 6284,1007.9766 L6284,1731.84 A5,5 0 0 1 6279,1736.84 L4829,1736.84 A5,5 0 0 1 4824,1731.84 L4824,963 A5,5 0 0 1 4829,958 " fill="none" style="stroke:#000000;stroke-width:3.0;"/><line style="stroke:#000000;stroke-width:3.0;" x1="4824" x2="4910.5117" y1="1002.9766" y2="1002.9766"/><text fill="#000000" font-family="sans-serif" font-size="28" font-weight="bold" lengthAdjust="spacing" textLength="60.5117" x="4832" y="989.0703">port</text></g><!--cluster command--><g id="cluster_command"><path d="M5737,1044 L5879.4922,1044 A7.5,7.5 0 0 1 5884.4922,1049 L5898.4922,1088.9766 L6231,1088.9766 A5,5 0 0 1 6236,1093.9766 L6236,1683.84 A5,5 0 0 1 6231,1688.84 L5737,1688.84 A5,5 0 0 1 5732,1683.84 L5732,1049 A5,5 0 0 1 5737,1044 " fill="none" style="stroke:#000000;stroke-width:3.0;"/><line style="stroke:#000000;stroke-width:3.0;" x1="5732" x2="5898.4922" y1="1088.9766" y2="1088.9766"/><text fill="#000000" font-family="sans-serif" font-size="28" font-weight="bold" lengthAdjust="spacing" textLength="140.4922" x="5740" y="1075.0703">command</text></g><!--cluster repo--><g id="cluster_repo"><path d="M4877,1457.86 L4944.5703,1457.86 A7.5,7.5 0 0 1 4949.5703,1462.86 L4963.5703,1502.8366 L5679,1502.8366 A5,5 0 0 1 5684,1507.8366 L5684,1683.84 A5,5 0 0 1 5679,1688.84 L4877,1688.84 A5,5 0 0 1 4872,1683.84 L4872,1462.86 A5,5 0 0 1 4877,1457.86 " fill="none" style="stroke:#000000;stroke-width:3.0;"/><line style="stroke:#000000;stroke-width:3.0;" x1="4872" x2="4963.5703" y1="1502.8366" y2="1502.8366"/><text fill="#000000" font-family="sans-serif" font-size="28" font-weight="bold" lengthAdjust="spacing" textLength="65.5703" x="4880" y="1488.9303">repo</text></g><!--cluster hawk--><g id="cluster_hawk"><path d="M2753,872 L2831.7266,872 A7.5,7.5 0 0 1 2836.7266,877 L2850.7266,916.9766 L4207,916.9766 A5,5 0 0 1 4212,921.9766 L4212,1779.84 A5,5 0 0 1 4207,1784.84 L2753,1784.84 A5,5 0 0 1 2748,1779.84 L2748,877 A5,5 0 0 1 2753,872 " fill="none" style="stroke:#000000;stroke-width:3.0;"/><line style="stroke:#000000;stroke-width:3.0;" x1="2748" x2="2850.7266" y1="916.9766" y2="916.9766"/><text fill="#000000" font-family="sans-serif" font-size="28" font-weight="bold" lengthAdjust="spacing" textLength="76.7266" x="2756" y="903.0703">hawk</text></g><!--cluster port--><g id="cluster_port"><path d="M2801,958 L2863.5117,958 A7.5,7.5 0 0 1 2868.5117,963 L2882.5117,1002.9766 L3699,1002.9766 A5,5 0 0 1 3704,1007.9766 L3704,1731.84 A5,5 0 0 1 3699,1736.84 L2801,1736.84 A5,5 0 0 1 2796,1731.84 L2796,963 A5,5 0 0 1 2801,958 " fill="none" style="stroke:#000000;stroke-width:3.0;"/><line style="stroke:#000000;stroke-width:3.0;" x1="2796" x2="2882.5117" y1="1002.9766" y2="1002.9766"/><text fill="#000000" font-family="sans-serif" font-size="28" font-weight="bold" lengthAdjust="spacing" textLength="60.5117" x="2804" y="989.0703">port</text></g><!--cluster repo--><g id="cluster_repo"><path d="M2849,1044 L2916.5703,1044 A7.5,7.5 0 0 1 2921.5703,1049 L2935.5703,1088.9766 L3651,1088.9766 A5,5 0 0 1 3656,1093.9766 L3656,1683.84 A5,5 0 0 1 3651,1688.84 L2849,1688.84 A5,5 0 0 1 2844,1683.84 L2844,1049 A5,5 0 0 1 2849,1044 " fill="none" style="stroke:#000000;stroke-width:3.0;"/><line style="stroke:#000000;stroke-width:3.0;" x1="2844" x2="2935.5703" y1="1088.9766" y2="1088.9766"/><text fill="#000000" font-family="sans-serif" font-size="28" font-weight="bold" lengthAdjust="spacing" textLength="65.5703" x="2852" y="1075.0703">repo</text></g><!--cluster port--><g id="cluster_port"><path d="M1097,958 L1159.5117,958 A7.5,7.5 0 0 1 1164.5117,963 L1178.5117,1002.9766 L2599,1002.9766 A5,5 0 0 1 2604,1007.9766 L2604,1731.84 A5,5 0 0 1 2599,1736.84 L1097,1736.84 A5,5 0 0 1 1092,1731.84 L1092,963 A5,5 0 0 1 1097,958 " fill="none" style="stroke:#000000;stroke-width:3.0;"/><line style="stroke:#000000;stroke-width:3.0;" x1="1092" x2="1178.5117" y1="1002.9766" y2="1002.9766"/><text fill="#000000" font-family="sans-serif" font-size="28" font-weight="bold" lengthAdjust="spacing" textLength="60.5117" x="1100" y="989.0703">port</text></g><!--cluster command--><g id="cluster_command"><path d="M1145,1044 L1287.4922,1044 A7.5,7.5 0 0 1 1292.4922,1049 L1306.4922,1088.9766 L1691,1088.9766 A5,5 0 0 1 1696,1093.9766 L1696,1683.84 A5,5 0 0 1 1691,1688.84 L1145,1688.84 A5,5 0 0 1 1140,1683.84 L1140,1049 A5,5 0 0 1 1145,1044 " fill="none" style="stroke:#000000;stroke-width:3.0;"/><line style="stroke:#000000;stroke-width:3.0;" x1="1140" x2="1306.4922" y1="1088.9766" y2="1088.9766"/><text fill="#000000" font-family="sans-serif" font-size="28" font-weight="bold" lengthAdjust="spacing" textLength="140.4922" x="1148" y="1075.0703">command</text></g><!--cluster repo--><g id="cluster_repo"><path d="M1749,1044 L1816.5703,1044 A7.5,7.5 0 0 1 1821.5703,1049 L1835.5703,1088.9766 L2551,1088.9766 A5,5 0 0 1 2556,1093.9766 L2556,1683.84 A5,5 0 0 1 2551,1688.84 L1749,1688.84 A5,5 0 0 1 1744,1683.84 L1744,1049 A5,5 0 0 1 1749,1044 " fill="none" style="stroke:#000000;stroke-width:3.0;"/><line style="stroke:#000000;stroke-width:3.0;" x1="1744" x2="1835.5703" y1="1088.9766" y2="1088.9766"/><text fill="#000000" font-family="sans-serif" font-size="28" font-weight="bold" lengthAdjust="spacing" textLength="65.5703" x="1752" y="1075.0703">repo</text></g><!--cluster io--><g id="cluster_io"><path d="M6673,925.02 L6701.9883,925.02 A7.5,7.5 0 0 1 6706.9883,930.02 L6720.9883,969.9966 L7571,969.9966 A5,5 0 0 1 7576,974.9966 L7576,1350.96 A5,5 0 0 1 7571,1355.96 L6673,1355.96 A5,5 0 0 1 6668,1350.96 L6668,930.02 A5,5 0 0 1 6673,925.02 " fill="none" style="stroke:#000000;stroke-width:3.0;"/><line style="stroke:#000000;stroke-width:3.0;" x1="6668" x2="6720.9883" y1="969.9966" y2="969.9966"/><text fill="#000000" font-family="sans-serif" font-size="28" font-weight="bold" lengthAdjust="spacing" textLength="26.9883" x="6676" y="956.0903">io</text></g><!--cluster file--><g id="cluster_file"><path d="M6721,1011.02 L6769.2246,1011.02 A7.5,7.5 0 0 1 6774.2246,1016.02 L6788.2246,1055.9966 L7523,1055.9966 A5,5 0 0 1 7528,1060.9966 L7528,1302.96 A5,5 0 0 1 7523,1307.96 L6721,1307.96 A5,5 0 0 1 6716,1302.96 L6716,1016.02 A5,5 0 0 1 6721,1011.02 " fill="none" style="stroke:#000000;stroke-width:3.0;"/><line style="stroke:#000000;stroke-width:3.0;" x1="6716" x2="6788.2246" y1="1055.9966" y2="1055.9966"/><text fill="#000000" font-family="sans-serif" font-size="28" font-weight="bold" lengthAdjust="spacing" textLength="46.2246" x="6724" y="1042.0903">file</text></g><!--cluster web--><g id="cluster_web"><path d="M209,872 L270.1172,872 A7.5,7.5 0 0 1 275.1172,877 L289.1172,916.9766 L895,916.9766 A5,5 0 0 1 900,921.9766 L900,1365.98 A5,5 0 0 1 895,1370.98 L209,1370.98 A5,5 0 0 1 204,1365.98 L204,877 A5,5 0 0 1 209,872 " fill="none" style="stroke:#000000;stroke-width:3.0;"/><line style="stroke:#000000;stroke-width:3.0;" x1="204" x2="289.1172" y1="916.9766" y2="916.9766"/><text fill="#000000" font-family="sans-serif" font-size="28" font-weight="bold" lengthAdjust="spacing" textLength="59.1172" x="212" y="903.0703">web</text></g><!--cluster rest--><g id="cluster_rest"><path d="M257,958 L315.3145,958 A7.5,7.5 0 0 1 320.3145,963 L334.3145,1002.9766 L847,1002.9766 A5,5 0 0 1 852,1007.9766 L852,1317.98 A5,5 0 0 1 847,1322.98 L257,1322.98 A5,5 0 0 1 252,1317.98 L252,963 A5,5 0 0 1 257,958 " fill="none" style="stroke:#000000;stroke-width:3.0;"/><line style="stroke:#000000;stroke-width:3.0;" x1="252" x2="334.3145" y1="1002.9766" y2="1002.9766"/><text fill="#000000" font-family="sans-serif" font-size="28" font-weight="bold" lengthAdjust="spacing" textLength="56.3145" x="260" y="989.0703">rest</text></g><!--cluster hawk--><g id="cluster_hawk"><path d="M305,1044 L383.7266,1044 A7.5,7.5 0 0 1 388.7266,1049 L402.7266,1088.9766 L799,1088.9766 A5,5 0 0 1 804,1093.9766 L804,1269.98 A5,5 0 0 1 799,1274.98 L305,1274.98 A5,5 0 0 1 300,1269.98 L300,1049 A5,5 0 0 1 305,1044 " fill="none" style="stroke:#000000;stroke-width:3.0;"/><line style="stroke:#000000;stroke-width:3.0;" x1="300" x2="402.7266" y1="1088.9766" y2="1088.9766"/><text fill="#000000" font-family="sans-serif" font-size="28" font-weight="bold" lengthAdjust="spacing" textLength="76.7266" x="308" y="1075.0703">hawk</text></g><!--class Hawk--><g id="elem_Hawk"><rect codeLine="5" fill="#F1F1F1" height="458.7422" id="Hawk" rx="5" ry="5" style="stroke:#181818;stroke-width:1.0;" width="452.4355" x="4339.78" y="949.12"/><ellipse cx="4520.5085" cy="981.12" fill="#ADD1B2" rx="22" ry="22" style="stroke:#181818;stroke-width:2.0;"/><path d="M4526.4548,992.4061 Q4525.2927,993.0038 4524.0144,993.3026 Q4522.7361,993.6014 4521.3249,993.6014 Q4516.3113,993.6014 4513.6716,990.2977 Q4511.032,986.994 4511.032,980.7518 Q4511.032,974.493 4513.6716,971.1893 Q4516.3113,967.8856 4521.3249,967.8856 Q4522.7361,967.8856 4524.031,968.1845 Q4525.3259,968.4833 4526.4548,969.0809 L4526.4548,974.5263 Q4525.1931,973.3641 4524.0061,972.8246 Q4522.8191,972.285 4521.5573,972.285 Q4518.8679,972.285 4517.4983,974.4183 Q4516.1286,976.5516 4516.1286,980.7518 Q4516.1286,984.9354 4517.4983,987.0687 Q4518.8679,989.202 4521.5573,989.202 Q4522.8191,989.202 4524.0061,988.6625 Q4525.1931,988.1229 4526.4548,986.9608 Z " fill="#000000"/><text fill="#000000" font-family="sans-serif" font-size="28" lengthAdjust="spacing" textLength="73.9785" x="4561.5085" y="991.702">Hawk</text><line style="stroke:#181818;stroke-width:1.0;" x1="4341.78" x2="4790.2155" y1="1013.12" y2="1013.12"/><rect fill="none" height="12" style="stroke:#C82930;stroke-width:2.0;" width="12" x="4355.78" y="1034.6083"/><text fill="#000000" font-family="sans-serif" font-size="28" lengthAdjust="spacing" textLength="248.7461" x="4379.78" y="1048.1903">birdFamily : String</text><rect fill="none" height="12" style="stroke:#C82930;stroke-width:2.0;" width="12" x="4355.78" y="1067.5848"/><text fill="#000000" font-family="sans-serif" font-size="28" lengthAdjust="spacing" textLength="335.959" x="4379.78" y="1081.1669">englishBirdName : String</text><rect fill="none" height="12" style="stroke:#C82930;stroke-width:2.0;" width="12" x="4355.78" y="1100.5614"/><text fill="#000000" font-family="sans-serif" font-size="28" lengthAdjust="spacing" textLength="285.3594" x="4379.78" y="1114.1434">iucnCategory : String</text><rect fill="none" height="12" style="stroke:#C82930;stroke-width:2.0;" width="12" x="4355.78" y="1133.538"/><text fill="#000000" font-family="sans-serif" font-size="28" lengthAdjust="spacing" textLength="358.668" x="4379.78" y="1147.12">scientificBirdName : String</text><line style="stroke:#181818;stroke-width:1.0;" x1="4341.78" x2="4790.2155" y1="1161.0263" y2="1161.0263"/><ellipse cx="4361.78" cy="1188.5145" fill="#84BE84" rx="6" ry="6" style="stroke:#038048;stroke-width:2.0;"/><text fill="#000000" font-family="sans-serif" font-size="28" lengthAdjust="spacing" textLength="275.8164" x="4379.78" y="1196.0966">birdFamily () : String</text><ellipse cx="4361.78" cy="1221.4911" fill="#84BE84" rx="6" ry="6" style="stroke:#038048;stroke-width:2.0;"/><text fill="#000000" font-family="sans-serif" font-size="28" lengthAdjust="spacing" textLength="363.0293" x="4379.78" y="1229.0731">englishBirdName () : String</text><ellipse cx="4361.78" cy="1254.4677" fill="#84BE84" rx="6" ry="6" style="stroke:#038048;stroke-width:2.0;"/><text fill="#000000" font-family="sans-serif" font-size="28" lengthAdjust="spacing" textLength="400.4355" x="4379.78" y="1262.0497">equals ( o : Object ) : boolean</text><ellipse cx="4361.78" cy="1287.4442" fill="#84BE84" rx="6" ry="6" style="stroke:#038048;stroke-width:2.0;"/><text fill="#000000" font-family="sans-serif" font-size="28" lengthAdjust="spacing" textLength="223.877" x="4379.78" y="1295.0263">hashCode () : int</text><ellipse cx="4361.78" cy="1320.4208" fill="#84BE84" rx="6" ry="6" style="stroke:#038048;stroke-width:2.0;"/><text fill="#000000" font-family="sans-serif" font-size="28" lengthAdjust="spacing" textLength="312.4297" x="4379.78" y="1328.0028">iucnCategory () : String</text><ellipse cx="4361.78" cy="1353.3973" fill="#84BE84" rx="6" ry="6" style="stroke:#038048;stroke-width:2.0;"/><text fill="#000000" font-family="sans-serif" font-size="28" lengthAdjust="spacing" textLength="385.7383" x="4379.78" y="1360.9794">scientificBirdName () : String</text><ellipse cx="4361.78" cy="1386.3739" fill="#84BE84" rx="6" ry="6" style="stroke:#038048;stroke-width:2.0;"/><text fill="#000000" font-family="sans-serif" font-size="28" lengthAdjust="spacing" textLength="241.1992" x="4379.78" y="1393.9559">toString () : String</text></g><!--class HawkCommand--><g id="elem_HawkCommand"><rect codeLine="20" fill="#F1F1F1" height="128.9766" id="HawkCommand" rx="5" ry="5" style="stroke:#181818;stroke-width:1.0;" width="439.6387" x="5764.18" y="1527.86"/><ellipse cx="5868.8519" cy="1559.86" fill="#B4A7E5" rx="22" ry="22" style="stroke:#181818;stroke-width:2.0;"/><path d="M5860.7073,1551.3903 L5860.7073,1547.0739 L5875.4661,1547.0739 L5875.4661,1551.3903 L5870.5355,1551.3903 L5870.5355,1567.5436 L5875.4661,1567.5436 L5875.4661,1571.86 L5860.7073,1571.86 L5860.7073,1567.5436 L5865.638,1567.5436 L5865.638,1551.3903 Z " fill="#000000"/><text fill="#000000" font-family="sans-serif" font-size="28" font-style="italic" lengthAdjust="spacing" textLength="213.2949" x="5909.8519" y="1570.442">HawkCommand</text><line style="stroke:#181818;stroke-width:1.0;" x1="5766.18" x2="6201.8187" y1="1591.86" y2="1591.86"/><line style="stroke:#181818;stroke-width:1.0;" x1="5766.18" x2="6201.8187" y1="1607.86" y2="1607.86"/><ellipse cx="5786.18" cy="1635.3483" fill="#84BE84" rx="6" ry="6" style="stroke:#038048;stroke-width:2.0;"/><text fill="#000000" font-family="sans-serif" font-size="28" font-style="italic" lengthAdjust="spacing" textLength="387.6387" x="5804.18" y="1642.9303">findAllHawks () : java.util.Set</text></g><!--class HawkCommandImpl--><g id="elem_HawkCommandImpl"><rect codeLine="25" fill="#F1F1F1" height="128.9766" id="HawkCommandImpl" rx="5" ry="5" style="stroke:#181818;stroke-width:1.0;" width="439.6387" x="5764.18" y="1114"/><ellipse cx="5840.269" cy="1146" fill="#ADD1B2" rx="22" ry="22" style="stroke:#181818;stroke-width:2.0;"/><path d="M5846.2153,1157.2861 Q5845.0531,1157.8838 5843.7748,1158.1826 Q5842.4965,1158.4814 5841.0854,1158.4814 Q5836.0717,1158.4814 5833.4321,1155.1777 Q5830.7924,1151.874 5830.7924,1145.6318 Q5830.7924,1139.373 5833.4321,1136.0693 Q5836.0717,1132.7656 5841.0854,1132.7656 Q5842.4965,1132.7656 5843.7914,1133.0645 Q5845.0863,1133.3633 5846.2153,1133.9609 L5846.2153,1139.4063 Q5844.9535,1138.2441 5843.7665,1137.7046 Q5842.5795,1137.165 5841.3178,1137.165 Q5838.6283,1137.165 5837.2587,1139.2983 Q5835.8891,1141.4316 5835.8891,1145.6318 Q5835.8891,1149.8154 5837.2587,1151.9487 Q5838.6283,1154.082 5841.3178,1154.082 Q5842.5795,1154.082 5843.7665,1153.5425 Q5844.9535,1153.0029 5846.2153,1151.8408 Z " fill="#000000"/><text fill="#000000" font-family="sans-serif" font-size="28" lengthAdjust="spacing" textLength="273.2188" x="5878.511" y="1156.582">HawkCommandImpl</text><line style="stroke:#181818;stroke-width:1.0;" x1="5766.18" x2="6201.8187" y1="1178" y2="1178"/><line style="stroke:#181818;stroke-width:1.0;" x1="5766.18" x2="6201.8187" y1="1194" y2="1194"/><ellipse cx="5786.18" cy="1221.4883" fill="#84BE84" rx="6" ry="6" style="stroke:#038048;stroke-width:2.0;"/><text fill="#000000" font-family="sans-serif" font-size="28" lengthAdjust="spacing" textLength="387.6387" x="5804.18" y="1229.0703">findAllHawks () : java.util.Set</text></g><!--class HawkRepository--><g id="elem_HawkRepository"><rect codeLine="30" fill="#F1F1F1" height="128.9766" id="HawkRepository" rx="5" ry="5" style="stroke:#181818;stroke-width:1.0;" width="746.9824" x="4904.5" y="1527.86"/><ellipse cx="5160.376" cy="1559.86" fill="#B4A7E5" rx="22" ry="22" style="stroke:#181818;stroke-width:2.0;"/><path d="M5152.2314,1551.3903 L5152.2314,1547.0739 L5166.9902,1547.0739 L5166.9902,1551.3903 L5162.0596,1551.3903 L5162.0596,1567.5436 L5166.9902,1567.5436 L5166.9902,1571.86 L5152.2314,1571.86 L5152.2314,1567.5436 L5157.1621,1567.5436 L5157.1621,1551.3903 Z " fill="#000000"/><text fill="#000000" font-family="sans-serif" font-size="28" font-style="italic" lengthAdjust="spacing" textLength="218.2305" x="5201.376" y="1570.442">HawkRepository</text><line style="stroke:#181818;stroke-width:1.0;" x1="4906.5" x2="5649.4824" y1="1591.86" y2="1591.86"/><line style="stroke:#181818;stroke-width:1.0;" x1="4906.5" x2="5649.4824" y1="1607.86" y2="1607.86"/><ellipse cx="4926.5" cy="1635.3483" fill="#84BE84" rx="6" ry="6" style="stroke:#038048;stroke-width:2.0;"/><text fill="#000000" font-family="sans-serif" font-size="28" font-style="italic" lengthAdjust="spacing" textLength="694.9824" x="4944.5" y="1642.9303">findAllHawksSortedByIUCNCategory () : java.util.Set</text></g><!--class HawkDomainCommand--><g id="elem_HawkDomainCommand"><rect codeLine="35" fill="#F1F1F1" height="128.9766" id="HawkDomainCommand" rx="5" ry="5" style="stroke:#181818;stroke-width:1.0;" width="439.6387" x="3736.18" y="1527.86"/><ellipse cx="3791.8739" cy="1559.86" fill="#B4A7E5" rx="22" ry="22" style="stroke:#181818;stroke-width:2.0;"/><path d="M3783.7294,1551.3903 L3783.7294,1547.0739 L3798.4882,1547.0739 L3798.4882,1551.3903 L3793.5575,1551.3903 L3793.5575,1567.5436 L3798.4882,1567.5436 L3798.4882,1571.86 L3783.7294,1571.86 L3783.7294,1567.5436 L3788.6601,1567.5436 L3788.6601,1551.3903 Z " fill="#000000"/><text fill="#000000" font-family="sans-serif" font-size="28" font-style="italic" lengthAdjust="spacing" textLength="318.541" x="3825.5837" y="1570.442">HawkDomainCommand</text><line style="stroke:#181818;stroke-width:1.0;" x1="3738.18" x2="4173.8187" y1="1591.86" y2="1591.86"/><line style="stroke:#181818;stroke-width:1.0;" x1="3738.18" x2="4173.8187" y1="1607.86" y2="1607.86"/><ellipse cx="3758.18" cy="1635.3483" fill="#84BE84" rx="6" ry="6" style="stroke:#038048;stroke-width:2.0;"/><text fill="#000000" font-family="sans-serif" font-size="28" font-style="italic" lengthAdjust="spacing" textLength="387.6387" x="3776.18" y="1642.9303">findAllHawks () : java.util.Set</text></g><!--class HawkDomainCommandImpl--><g id="elem_HawkDomainCommandImpl"><rect codeLine="40" fill="#F1F1F1" height="128.9766" id="HawkDomainCommandImpl" rx="5" ry="5" style="stroke:#181818;stroke-width:1.0;" width="442.4648" x="3736.76" y="1114"/><ellipse cx="3766.76" cy="1146" fill="#ADD1B2" rx="22" ry="22" style="stroke:#181818;stroke-width:2.0;"/><path d="M3772.7063,1157.2861 Q3771.5442,1157.8838 3770.2659,1158.1826 Q3768.9875,1158.4814 3767.5764,1158.4814 Q3762.5627,1158.4814 3759.9231,1155.1777 Q3757.2834,1151.874 3757.2834,1145.6318 Q3757.2834,1139.373 3759.9231,1136.0693 Q3762.5627,1132.7656 3767.5764,1132.7656 Q3768.9875,1132.7656 3770.2825,1133.0645 Q3771.5774,1133.3633 3772.7063,1133.9609 L3772.7063,1139.4063 Q3771.4446,1138.2441 3770.2576,1137.7046 Q3769.0705,1137.165 3767.8088,1137.165 Q3765.1194,1137.165 3763.7497,1139.2983 Q3762.3801,1141.4316 3762.3801,1145.6318 Q3762.3801,1149.8154 3763.7497,1151.9487 Q3765.1194,1154.082 3767.8088,1154.082 Q3769.0705,1154.082 3770.2576,1153.5425 Q3771.4446,1153.0029 3772.7063,1151.8408 Z " fill="#000000"/><text fill="#000000" font-family="sans-serif" font-size="28" lengthAdjust="spacing" textLength="378.4648" x="3794.76" y="1156.582">HawkDomainCommandImpl</text><line style="stroke:#181818;stroke-width:1.0;" x1="3738.76" x2="4177.2248" y1="1178" y2="1178"/><line style="stroke:#181818;stroke-width:1.0;" x1="3738.76" x2="4177.2248" y1="1194" y2="1194"/><ellipse cx="3758.76" cy="1221.4883" fill="#84BE84" rx="6" ry="6" style="stroke:#038048;stroke-width:2.0;"/><text fill="#000000" font-family="sans-serif" font-size="28" lengthAdjust="spacing" textLength="387.6387" x="3776.76" y="1229.0703">findAllHawks () : java.util.Set</text></g><!--class HawkDomainRepo--><g id="elem_HawkDomainRepo"><rect codeLine="45" fill="#F1F1F1" height="128.9766" id="HawkDomainRepo" rx="5" ry="5" style="stroke:#181818;stroke-width:1.0;" width="746.9824" x="2876.5" y="1527.86"/><ellipse cx="3117.8154" cy="1559.86" fill="#B4A7E5" rx="22" ry="22" style="stroke:#181818;stroke-width:2.0;"/><path d="M3109.6709,1551.3903 L3109.6709,1547.0739 L3124.4297,1547.0739 L3124.4297,1551.3903 L3119.499,1551.3903 L3119.499,1567.5436 L3124.4297,1567.5436 L3124.4297,1571.86 L3109.6709,1571.86 L3109.6709,1567.5436 L3114.6016,1567.5436 L3114.6016,1551.3903 Z " fill="#000000"/><text fill="#000000" font-family="sans-serif" font-size="28" font-style="italic" lengthAdjust="spacing" textLength="247.3516" x="3158.8154" y="1570.442">HawkDomainRepo</text><line style="stroke:#181818;stroke-width:1.0;" x1="2878.5" x2="3621.4824" y1="1591.86" y2="1591.86"/><line style="stroke:#181818;stroke-width:1.0;" x1="2878.5" x2="3621.4824" y1="1607.86" y2="1607.86"/><ellipse cx="2898.5" cy="1635.3483" fill="#84BE84" rx="6" ry="6" style="stroke:#038048;stroke-width:2.0;"/><text fill="#000000" font-family="sans-serif" font-size="28" font-style="italic" lengthAdjust="spacing" textLength="694.9824" x="2916.5" y="1642.9303">findAllHawksSortedByIUCNCategory () : java.util.Set</text></g><!--class HawkRepositoryImpl--><g id="elem_HawkRepositoryImpl"><rect codeLine="50" fill="#F1F1F1" height="128.9766" id="HawkRepositoryImpl" rx="5" ry="5" style="stroke:#181818;stroke-width:1.0;" width="746.9824" x="2876.5" y="1114"/><ellipse cx="3102.4141" cy="1146" fill="#ADD1B2" rx="22" ry="22" style="stroke:#181818;stroke-width:2.0;"/><path d="M3108.3604,1157.2861 Q3107.1982,1157.8838 3105.9199,1158.1826 Q3104.6416,1158.4814 3103.2305,1158.4814 Q3098.2168,1158.4814 3095.5771,1155.1777 Q3092.9375,1151.874 3092.9375,1145.6318 Q3092.9375,1139.373 3095.5771,1136.0693 Q3098.2168,1132.7656 3103.2305,1132.7656 Q3104.6416,1132.7656 3105.9365,1133.0645 Q3107.2314,1133.3633 3108.3604,1133.9609 L3108.3604,1139.4063 Q3107.0986,1138.2441 3105.9116,1137.7046 Q3104.7246,1137.165 3103.4629,1137.165 Q3100.7734,1137.165 3099.4038,1139.2983 Q3098.0342,1141.4316 3098.0342,1145.6318 Q3098.0342,1149.8154 3099.4038,1151.9487 Q3100.7734,1154.082 3103.4629,1154.082 Q3104.7246,1154.082 3105.9116,1153.5425 Q3107.0986,1153.0029 3108.3604,1151.8408 Z " fill="#000000"/><text fill="#000000" font-family="sans-serif" font-size="28" lengthAdjust="spacing" textLength="278.1543" x="3143.4141" y="1156.582">HawkRepositoryImpl</text><line style="stroke:#181818;stroke-width:1.0;" x1="2878.5" x2="3621.4824" y1="1178" y2="1178"/><line style="stroke:#181818;stroke-width:1.0;" x1="2878.5" x2="3621.4824" y1="1194" y2="1194"/><ellipse cx="2898.5" cy="1221.4883" fill="#84BE84" rx="6" ry="6" style="stroke:#038048;stroke-width:2.0;"/><text fill="#000000" font-family="sans-serif" font-size="28" lengthAdjust="spacing" textLength="694.9824" x="2916.5" y="1229.0703">findAllHawksSortedByIUCNCategory () : java.util.Set</text></g><!--class HawkApplicationCommand--><g id="elem_HawkApplicationCommand"><rect codeLine="55" fill="#F1F1F1" height="128.9766" id="HawkApplicationCommand" rx="5" ry="5" style="stroke:#181818;stroke-width:1.0;" width="439.6387" x="1184.18" y="1527.86"/><ellipse cx="1218.07" cy="1559.86" fill="#B4A7E5" rx="22" ry="22" style="stroke:#181818;stroke-width:2.0;"/><path d="M1209.9255,1551.3903 L1209.9255,1547.0739 L1224.6843,1547.0739 L1224.6843,1551.3903 L1219.7536,1551.3903 L1219.7536,1567.5436 L1224.6843,1567.5436 L1224.6843,1571.86 L1209.9255,1571.86 L1209.9255,1567.5436 L1214.8562,1567.5436 L1214.8562,1551.3903 Z " fill="#000000"/><text fill="#000000" font-family="sans-serif" font-size="28" font-style="italic" lengthAdjust="spacing" textLength="366.9941" x="1246.9345" y="1570.442">HawkApplicationCommand</text><line style="stroke:#181818;stroke-width:1.0;" x1="1186.18" x2="1621.8187" y1="1591.86" y2="1591.86"/><line style="stroke:#181818;stroke-width:1.0;" x1="1186.18" x2="1621.8187" y1="1607.86" y2="1607.86"/><ellipse cx="1206.18" cy="1635.3483" fill="#84BE84" rx="6" ry="6" style="stroke:#038048;stroke-width:2.0;"/><text fill="#000000" font-family="sans-serif" font-size="28" font-style="italic" lengthAdjust="spacing" textLength="387.6387" x="1224.18" y="1642.9303">findAllHawks () : java.util.Set</text></g><!--class HawkApplicationCommandImpl--><g id="elem_HawkApplicationCommandImpl"><rect codeLine="60" fill="#F1F1F1" height="128.9766" id="HawkApplicationCommandImpl" rx="5" ry="5" style="stroke:#181818;stroke-width:1.0;" width="490.918" x="1172.54" y="1114"/><ellipse cx="1202.54" cy="1146" fill="#ADD1B2" rx="22" ry="22" style="stroke:#181818;stroke-width:2.0;"/><path d="M1208.4863,1157.2861 Q1207.3242,1157.8838 1206.0459,1158.1826 Q1204.7675,1158.4814 1203.3564,1158.4814 Q1198.3427,1158.4814 1195.7031,1155.1777 Q1193.0634,1151.874 1193.0634,1145.6318 Q1193.0634,1139.373 1195.7031,1136.0693 Q1198.3427,1132.7656 1203.3564,1132.7656 Q1204.7675,1132.7656 1206.0625,1133.0645 Q1207.3574,1133.3633 1208.4863,1133.9609 L1208.4863,1139.4063 Q1207.2246,1138.2441 1206.0376,1137.7046 Q1204.8505,1137.165 1203.5888,1137.165 Q1200.8994,1137.165 1199.5297,1139.2983 Q1198.1601,1141.4316 1198.1601,1145.6318 Q1198.1601,1149.8154 1199.5297,1151.9487 Q1200.8994,1154.082 1203.5888,1154.082 Q1204.8505,1154.082 1206.0376,1153.5425 Q1207.2246,1153.0029 1208.4863,1151.8408 Z " fill="#000000"/><text fill="#000000" font-family="sans-serif" font-size="28" lengthAdjust="spacing" textLength="426.918" x="1230.54" y="1156.582">HawkApplicationCommandImpl</text><line style="stroke:#181818;stroke-width:1.0;" x1="1174.54" x2="1661.458" y1="1178" y2="1178"/><line style="stroke:#181818;stroke-width:1.0;" x1="1174.54" x2="1661.458" y1="1194" y2="1194"/><ellipse cx="1194.54" cy="1221.4883" fill="#84BE84" rx="6" ry="6" style="stroke:#038048;stroke-width:2.0;"/><text fill="#000000" font-family="sans-serif" font-size="28" lengthAdjust="spacing" textLength="387.6387" x="1212.54" y="1229.0703">findAllHawks () : java.util.Set</text></g><!--class HawkApplicationRepoPort--><g id="elem_HawkApplicationRepoPort"><rect codeLine="65" fill="#F1F1F1" height="128.9766" id="HawkApplicationRepoPort" rx="5" ry="5" style="stroke:#181818;stroke-width:1.0;" width="746.9824" x="1776.5" y="1527.86"/><ellipse cx="1966.2861" cy="1559.86" fill="#B4A7E5" rx="22" ry="22" style="stroke:#181818;stroke-width:2.0;"/><path d="M1958.1416,1551.3903 L1958.1416,1547.0739 L1972.9004,1547.0739 L1972.9004,1551.3903 L1967.9697,1551.3903 L1967.9697,1567.5436 L1972.9004,1567.5436 L1972.9004,1571.86 L1958.1416,1571.86 L1958.1416,1567.5436 L1963.0723,1567.5436 L1963.0723,1551.3903 Z " fill="#000000"/><text fill="#000000" font-family="sans-serif" font-size="28" font-style="italic" lengthAdjust="spacing" textLength="350.4102" x="2007.2861" y="1570.442">HawkApplicationRepoPort</text><line style="stroke:#181818;stroke-width:1.0;" x1="1778.5" x2="2521.4824" y1="1591.86" y2="1591.86"/><line style="stroke:#181818;stroke-width:1.0;" x1="1778.5" x2="2521.4824" y1="1607.86" y2="1607.86"/><ellipse cx="1798.5" cy="1635.3483" fill="#84BE84" rx="6" ry="6" style="stroke:#038048;stroke-width:2.0;"/><text fill="#000000" font-family="sans-serif" font-size="28" font-style="italic" lengthAdjust="spacing" textLength="694.9824" x="1816.5" y="1642.9303">findAllHawksSortedByIUCNCategory () : java.util.Set</text></g><!--class HawkDomainRepoImpl--><g id="elem_HawkDomainRepoImpl"><rect codeLine="70" fill="#F1F1F1" height="128.9766" id="HawkDomainRepoImpl" rx="5" ry="5" style="stroke:#181818;stroke-width:1.0;" width="746.9824" x="1776.5" y="1114"/><ellipse cx="1987.8535" cy="1146" fill="#ADD1B2" rx="22" ry="22" style="stroke:#181818;stroke-width:2.0;"/><path d="M1993.7998,1157.2861 Q1992.6377,1157.8838 1991.3594,1158.1826 Q1990.0811,1158.4814 1988.6699,1158.4814 Q1983.6563,1158.4814 1981.0166,1155.1777 Q1978.377,1151.874 1978.377,1145.6318 Q1978.377,1139.373 1981.0166,1136.0693 Q1983.6563,1132.7656 1988.6699,1132.7656 Q1990.0811,1132.7656 1991.376,1133.0645 Q1992.6709,1133.3633 1993.7998,1133.9609 L1993.7998,1139.4063 Q1992.5381,1138.2441 1991.3511,1137.7046 Q1990.1641,1137.165 1988.9023,1137.165 Q1986.2129,1137.165 1984.8433,1139.2983 Q1983.4736,1141.4316 1983.4736,1145.6318 Q1983.4736,1149.8154 1984.8433,1151.9487 Q1986.2129,1154.082 1988.9023,1154.082 Q1990.1641,1154.082 1991.3511,1153.5425 Q1992.5381,1153.0029 1993.7998,1151.8408 Z " fill="#000000"/><text fill="#000000" font-family="sans-serif" font-size="28" lengthAdjust="spacing" textLength="307.2754" x="2028.8535" y="1156.582">HawkDomainRepoImpl</text><line style="stroke:#181818;stroke-width:1.0;" x1="1778.5" x2="2521.4824" y1="1178" y2="1178"/><line style="stroke:#181818;stroke-width:1.0;" x1="1778.5" x2="2521.4824" y1="1194" y2="1194"/><ellipse cx="1798.5" cy="1221.4883" fill="#84BE84" rx="6" ry="6" style="stroke:#038048;stroke-width:2.0;"/><text fill="#000000" font-family="sans-serif" font-size="28" lengthAdjust="spacing" textLength="694.9824" x="1816.5" y="1229.0703">findAllHawksSortedByIUCNCategory () : java.util.Set</text></g><!--class HawkFileApplicationRepoPort--><g id="elem_HawkFileApplicationRepoPort"><rect codeLine="75" fill="#F1F1F1" height="194.9297" id="HawkFileApplicationRepoPort" rx="5" ry="5" style="stroke:#181818;stroke-width:1.0;" width="746.9824" x="6748.5" y="1081.02"/><ellipse cx="6914.8867" cy="1113.02" fill="#ADD1B2" rx="22" ry="22" style="stroke:#181818;stroke-width:2.0;"/><path d="M6920.833,1124.3061 Q6919.6709,1124.9038 6918.3926,1125.2026 Q6917.1143,1125.5014 6915.7031,1125.5014 Q6910.6895,1125.5014 6908.0498,1122.1977 Q6905.4102,1118.894 6905.4102,1112.6518 Q6905.4102,1106.393 6908.0498,1103.0893 Q6910.6895,1099.7856 6915.7031,1099.7856 Q6917.1143,1099.7856 6918.4092,1100.0845 Q6919.7041,1100.3833 6920.833,1100.9809 L6920.833,1106.4263 Q6919.5713,1105.2641 6918.3843,1104.7246 Q6917.1973,1104.185 6915.9355,1104.185 Q6913.2461,1104.185 6911.8765,1106.3183 Q6910.5068,1108.4516 6910.5068,1112.6518 Q6910.5068,1116.8354 6911.8765,1118.9687 Q6913.2461,1121.102 6915.9355,1121.102 Q6917.1973,1121.102 6918.3843,1120.5625 Q6919.5713,1120.0229 6920.833,1118.8608 Z " fill="#000000"/><text fill="#000000" font-family="sans-serif" font-size="28" lengthAdjust="spacing" textLength="397.209" x="6955.8867" y="1123.602">HawkFileApplicationRepoPort</text><line style="stroke:#181818;stroke-width:1.0;" x1="6750.5" x2="7493.4824" y1="1145.02" y2="1145.02"/><polygon fill="none" points="6770.5,1164.5083,6762.5,1176.5083,6778.5,1176.5083" style="stroke:#1963A0;stroke-width:2.0;"/><text fill="#000000" font-family="sans-serif" font-size="28" lengthAdjust="spacing" text-decoration="underline" textLength="251.207" x="6788.5" y="1180.0903">BIRDS_CSV : String</text><polygon fill="none" points="6770.5,1197.4848,6762.5,1209.4848,6778.5,1209.4848" style="stroke:#1963A0;stroke-width:2.0;"/><text fill="#000000" font-family="sans-serif" font-size="28" lengthAdjust="spacing" text-decoration="underline" textLength="317.6387" x="6788.5" y="1213.0669">HAWKS_EAGLES : String</text><line style="stroke:#181818;stroke-width:1.0;" x1="6750.5" x2="7493.4824" y1="1226.9731" y2="1226.9731"/><ellipse cx="6770.5" cy="1254.4614" fill="#84BE84" rx="6" ry="6" style="stroke:#038048;stroke-width:2.0;"/><text fill="#000000" font-family="sans-serif" font-size="28" lengthAdjust="spacing" textLength="694.9824" x="6788.5" y="1262.0434">findAllHawksSortedByIUCNCategory () : java.util.Set</text></g><!--class HawkRestCommand--><g id="elem_HawkRestCommand"><rect codeLine="82" fill="#F1F1F1" height="128.9766" id="HawkRestCommand" rx="5" ry="5" style="stroke:#181818;stroke-width:1.0;" width="439.6387" x="332.18" y="1114"/><ellipse cx="409.1118" cy="1146" fill="#ADD1B2" rx="22" ry="22" style="stroke:#181818;stroke-width:2.0;"/><path d="M415.0581,1157.2861 Q413.896,1157.8838 412.6177,1158.1826 Q411.3394,1158.4814 409.9282,1158.4814 Q404.9146,1158.4814 402.2749,1155.1777 Q399.6353,1151.874 399.6353,1145.6318 Q399.6353,1139.373 402.2749,1136.0693 Q404.9146,1132.7656 409.9282,1132.7656 Q411.3394,1132.7656 412.6343,1133.0645 Q413.9292,1133.3633 415.0581,1133.9609 L415.0581,1139.4063 Q413.7964,1138.2441 412.6094,1137.7046 Q411.4224,1137.165 410.1607,1137.165 Q407.4712,1137.165 406.1016,1139.2983 Q404.732,1141.4316 404.732,1145.6318 Q404.732,1149.8154 406.1016,1151.9487 Q407.4712,1154.082 410.1607,1154.082 Q411.4224,1154.082 412.6094,1153.5425 Q413.7964,1153.0029 415.0581,1151.8408 Z " fill="#000000"/><text fill="#000000" font-family="sans-serif" font-size="28" lengthAdjust="spacing" textLength="271.3457" x="447.5411" y="1156.582">HawkRestCommand</text><line style="stroke:#181818;stroke-width:1.0;" x1="334.18" x2="769.8187" y1="1178" y2="1178"/><line style="stroke:#181818;stroke-width:1.0;" x1="334.18" x2="769.8187" y1="1194" y2="1194"/><ellipse cx="354.18" cy="1221.4883" fill="#84BE84" rx="6" ry="6" style="stroke:#038048;stroke-width:2.0;"/><text fill="#000000" font-family="sans-serif" font-size="28" lengthAdjust="spacing" textLength="387.6387" x="372.18" y="1229.0703">findAllHawks () : java.util.Set</text></g><!--reverse link HawkCommandImpl to HawkRepository--><g id="link_HawkCommandImpl_HawkRepository"><path codeLine="89" d="M5739.32,1178.84 C5574.82,1178.84 5402.5,1178.84 5402.5,1178.84 C5402.5,1178.84 5402.5,1411.44 5402.5,1527.74 " fill="none" id="HawkCommandImpl-backto-HawkRepository" style="stroke:#181818;stroke-width:2.0;"/><polygon fill="#181818" points="5763.32,1178.84,5751.32,1170.84,5739.32,1178.84,5751.32,1186.84,5763.32,1178.84" style="stroke:#181818;stroke-width:2.0;"/><text fill="#000000" font-family="sans-serif" font-size="26" lengthAdjust="spacing" textLength="199.6719" x="5208.46" y="1171.9767">hawkRepository</text></g><!--link HawkCommandImpl to HawkCommand--><g id="link_HawkCommandImpl_HawkCommand"><path codeLine="90" d="M6057.28,1243.16 C6057.28,1320.68 6057.28,1413.84 6057.28,1491.46 " fill="none" id="HawkCommandImpl-to-HawkCommand" style="stroke:#181818;stroke-width:2.0;stroke-dasharray:7.0,7.0;"/><polygon fill="none" points="6057.28,1527.46,6069.28,1491.46,6045.28,1491.46,6057.28,1527.46" style="stroke:#181818;stroke-width:2.0;"/></g><!--reverse link HawkDomainCommandImpl to HawkCommand--><g id="link_HawkDomainCommandImpl_HawkCommand"><path codeLine="91" d="M4066.06,1267.76 C4066.06,1350.02 4066.06,1456.84 4066.06,1456.84 C4066.06,1456.84 5910.72,1456.84 5910.72,1456.84 C5910.72,1456.84 5910.72,1492.32 5910.72,1526.98 " fill="none" id="HawkDomainCommandImpl-backto-HawkCommand" style="stroke:#181818;stroke-width:2.0;"/><polygon fill="#181818" points="4066.06,1243.76,4058.06,1255.76,4066.06,1267.76,4074.06,1255.76,4066.06,1243.76" style="stroke:#181818;stroke-width:2.0;"/><text fill="#000000" font-family="sans-serif" font-size="26" lengthAdjust="spacing" textLength="195.0889" x="4720.92" y="1449.9767">hawkCommand</text></g><!--link HawkDomainCommandImpl to HawkDomainCommand--><g id="link_HawkDomainCommandImpl_HawkDomainCommand"><path codeLine="92" d="M3956.3,1243.16 C3956.3,1320.68 3956.3,1413.84 3956.3,1491.46 " fill="none" id="HawkDomainCommandImpl-to-HawkDomainCommand" style="stroke:#181818;stroke-width:2.0;stroke-dasharray:7.0,7.0;"/><polygon fill="none" points="3956.3,1527.46,3968.3,1491.46,3944.3,1491.46,3956.3,1527.46" style="stroke:#181818;stroke-width:2.0;"/></g><!--reverse link HawkRepositoryImpl to HawkDomainRepo--><g id="link_HawkRepositoryImpl_HawkDomainRepo"><path codeLine="93" d="M3125.5,1267.16 C3125.5,1344.68 3125.5,1449.84 3125.5,1527.46 " fill="none" id="HawkRepositoryImpl-backto-HawkDomainRepo" style="stroke:#181818;stroke-width:2.0;"/><polygon fill="#181818" points="3125.5,1243.16,3117.5,1255.16,3125.5,1267.16,3133.5,1255.16,3125.5,1243.16" style="stroke:#181818;stroke-width:2.0;"/><text fill="#000000" font-family="sans-serif" font-size="26" lengthAdjust="spacing" textLength="226.7129" x="2897.5" y="1378.4367">hawkDomainRepo</text></g><!--link HawkRepositoryImpl to HawkRepository--><g id="link_HawkRepositoryImpl_HawkRepository"><path codeLine="94" d="M3374.5,1243.36 C3374.5,1332.2 3374.5,1480.84 3374.5,1480.84 C3374.5,1480.84 5153.5,1480.84 5153.5,1480.84 C5153.5,1480.84 5153.5,1466.96 5153.5,1491.48 " fill="none" id="HawkRepositoryImpl-to-HawkRepository" style="stroke:#181818;stroke-width:2.0;stroke-dasharray:7.0,7.0;"/><polygon fill="none" points="5153.5,1527.48,5165.5,1491.48,5141.5,1491.48,5153.5,1527.48" style="stroke:#181818;stroke-width:2.0;"/></g><!--reverse link HawkApplicationCommandImpl to HawkDomainCommand--><g id="link_HawkApplicationCommandImpl_HawkDomainCommand"><path codeLine="95" d="M1643.64,1267.74 C1643.64,1362.98 1643.64,1504.84 1643.64,1504.84 C1643.64,1504.84 3846.54,1504.84 3846.54,1504.84 C3846.54,1504.84 3846.54,1514.26 3846.54,1526.92 " fill="none" id="HawkApplicationCommandImpl-backto-HawkDomainCommand" style="stroke:#181818;stroke-width:2.0;"/><polygon fill="#181818" points="1643.64,1243.74,1635.64,1255.74,1643.64,1267.74,1651.64,1255.74,1643.64,1243.74" style="stroke:#181818;stroke-width:2.0;"/><text fill="#000000" font-family="sans-serif" font-size="26" lengthAdjust="spacing" textLength="292.8174" x="2331.58" y="1497.9767">hawkDomainCommand</text></g><!--link HawkApplicationCommandImpl to HawkApplicationCommand--><g id="link_HawkApplicationCommandImpl_HawkApplicationCommand"><path codeLine="96" d="M1404,1243.16 C1404,1320.68 1404,1413.84 1404,1491.46 " fill="none" id="HawkApplicationCommandImpl-to-HawkApplicationCommand" style="stroke:#181818;stroke-width:2.0;stroke-dasharray:7.0,7.0;"/><polygon fill="none" points="1404,1527.46,1416,1491.46,1392,1491.46,1404,1527.46" style="stroke:#181818;stroke-width:2.0;"/></g><!--reverse link HawkDomainRepoImpl to HawkApplicationRepoPort--><g id="link_HawkDomainRepoImpl_HawkApplicationRepoPort"><path codeLine="97" d="M2025.5,1267.16 C2025.5,1344.68 2025.5,1449.84 2025.5,1527.46 " fill="none" id="HawkDomainRepoImpl-backto-HawkApplicationRepoPort" style="stroke:#181818;stroke-width:2.0;"/><polygon fill="#181818" points="2025.5,1243.16,2017.5,1255.16,2025.5,1267.16,2033.5,1255.16,2025.5,1243.16" style="stroke:#181818;stroke-width:2.0;"/><text fill="#000000" font-family="sans-serif" font-size="26" lengthAdjust="spacing" textLength="199.6719" x="1825.5" y="1378.4367">hawkRepository</text></g><!--link HawkDomainRepoImpl to HawkDomainRepo--><g id="link_HawkDomainRepoImpl_HawkDomainRepo"><path codeLine="98" d="M2524.46,1178.84 C2621.84,1178.84 2700,1178.84 2700,1178.84 C2700,1178.84 2700,1592.84 2700,1592.84 C2700,1592.84 2742.16,1592.84 2839.54,1592.84 " fill="none" id="HawkDomainRepoImpl-to-HawkDomainRepo" style="stroke:#181818;stroke-width:2.0;stroke-dasharray:7.0,7.0;"/><polygon fill="none" points="2875.54,1592.84,2839.54,1580.84,2839.54,1604.84,2875.54,1592.84" style="stroke:#181818;stroke-width:2.0;"/></g><!--link HawkFileApplicationRepoPort to HawkApplicationRepoPort--><g id="link_HawkFileApplicationRepoPort_HawkApplicationRepoPort"><path codeLine="99" d="M7122,1276.82 C7122,1348.4 7122,1432.84 7122,1432.84 C7122,1432.84 2274.5,1432.84 2274.5,1432.84 C2274.5,1432.84 2274.5,1447.32 2274.5,1491.48 " fill="none" id="HawkFileApplicationRepoPort-to-HawkApplicationRepoPort" style="stroke:#181818;stroke-width:2.0;stroke-dasharray:7.0,7.0;"/><polygon fill="none" points="2274.5,1527.48,2286.5,1491.48,2262.5,1491.48,2274.5,1527.48" style="stroke:#181818;stroke-width:2.0;"/></g><!--reverse link HawkRestCommand to HawkApplicationCommand--><g id="link_HawkRestCommand_HawkApplicationCommand"><path codeLine="100" d="M552,1267.24 C552,1383.76 552,1592.84 552,1592.84 C552,1592.84 931.04,1592.84 1183.48,1592.84 " fill="none" id="HawkRestCommand-backto-HawkApplicationCommand" style="stroke:#181818;stroke-width:2.0;"/><polygon fill="#181818" points="552,1243.24,544,1255.24,552,1267.24,560,1255.24,552,1243.24" style="stroke:#181818;stroke-width:2.0;"/><text fill="#000000" font-family="sans-serif" font-size="26" lengthAdjust="spacing" textLength="195.0889" x="496.94" y="1585.9767">hawkCommand</text></g><!--SRC=[pLTHRzem47vUVeKVkqtu1_HX4j1sHPkwYMZROsMSWrnnxCmsL8YntpudwKQoEX11alO5ERwBxxlxFkSEiqIPCiqI8b22tQH0bBQn2eA02sOCuIgXgR8h3ajgOfNIIECQjA5SQQ0iJGLoPb59Qa2laOEXaKeObfv1MhJe5Z5xND9RzqEsmPlj7454EpAOeOvkM89YGov9Q3NAHSaASY7Gn2FdTCSIyBdWYiinix1Gsdk4uPX1c2FtdPA0IzUvlI_Xk7ZhzVWVIvtRpnKJXbmGvSnVPW_0BSayPqe9OBBi6ZCJZrNqT1HAMpPMygg9vScjnjEgOgzYtpcUNLJGSyQXVQvJfoNtSf8m6UN4ZujrplzVP6JBPiPgngr3EKSP3ON8V4s1z86j6LrP53G4cmFkI9XrO2T9AYg06u7ikgeQKfMZdBg5GPjff55LG_SsHAFDvDluhggkZfFuT_klSiFhae8Vt2kWtiDu0J7ZlNt6soredL8FrxKtXJwxySEzrylAim6o5z1cbSuIf8pPhyxuYlHOTsNQazuHQAZe70NauM_SegvSJrFArbXduploUpIPNeNtu_2xPvRPUzqEVtmAxw-77pzVXzv-tr5QZp1pPJLs_yMSkYVVRMcaHnUlrpx-RZ0WFNRaIn9NDdhEbj9V7qX_arBGRIFka3lVZ5fmrqzghH7bZn7qqj3RukVmo5FGij_e9xSkRv8dPj3XpD0gJS_d-J8_PyYlQJOd4zCWGD3st75gwOyFNcqqceFGs_r2rOKApXgdpjF2eVe69yv3Pn5-v9z9jJy5Vm00]--></g></svg>